<svg width="5" height="10" viewBox="0 0 5 10" fill="none" xmlns="http://www.w3.org/2000/svg">
<path d="M3.18951 1.11C2.76951 0.61 2.40451 0.11 2.33451 0H2.31951C2.24951 0.105 1.88451 0.61 1.46451 1.11C-2.13549 5.705 2.03451 8.805 2.03451 8.805L2.06951 8.83C2.09951 9.305 2.17951 9.995 2.17951 9.995H2.48951C2.48951 9.995 2.56451 9.31 2.59451 8.83L2.62951 8.8C2.62951 8.8 6.78951 5.705 3.18951 1.11ZM2.31951 8.735C2.23188 8.66301 2.1515 8.58263 2.07951 8.495L2.31951 3.495L2.54451 8.495C2.47706 8.58176 2.40174 8.6621 2.31951 8.735Z" fill="black"/>
</svg>
