<svg width="13" height="12" viewBox="0 0 13 12" fill="none" xmlns="http://www.w3.org/2000/svg">
<path d="M5.96976 0.000418244C5.46771 0.00179624 4.96777 0.0654063 4.48138 0.189793C2.14138 0.771793 0.284005 2.89092 0.0458804 5.29467C-0.249245 7.56829 0.901255 9.93754 2.86776 11.1113C4.79976 12.3203 7.41463 12.2719 9.30538 11.0003C11.0049 9.89667 12.0613 7.88667 11.999 5.85717C11.9701 3.84979 10.8429 1.89829 9.11788 0.867043C8.17851 0.286918 7.07338 -0.00408176 5.96976 4.32438e-05V0.000418244ZM5.93638 0.847918C8.40876 0.843793 10.8309 2.75592 11.0788 5.31079C11.5516 8.14092 9.20188 11.0179 6.33463 11.1019C3.60801 11.3734 0.971005 9.06079 0.893005 6.32254C0.69013 4.10592 2.15301 1.90467 4.24251 1.17192C4.78124 0.957331 5.35611 0.847984 5.93601 0.849793L5.93638 0.847918ZM8.48338 2.46154C7.13938 3.50404 5.85238 4.61554 4.53801 5.68992C5.13951 5.69742 5.74513 5.69742 6.34851 5.69329C7.05351 4.61142 7.77838 3.54342 8.48338 2.46117V2.46154ZM5.65138 6.28767C4.94638 7.37179 4.22001 8.44167 3.51426 9.52579C4.86238 8.48479 6.14338 7.36579 7.46563 6.29742C6.86078 6.29055 6.25589 6.28742 5.65101 6.28804L5.65138 6.28767Z" fill="black"/>
</svg>
