<svg width="24" height="24" viewBox="0 0 24 24" fill="none" xmlns="http://www.w3.org/2000/svg">
<path d="M12 22.596C18.628 22.596 24 18.258 24 12.908C24 9.58999 21.943 6.65999 18.781 4.92199C17.495 4.20699 16.484 3.56499 15.642 3.03199C14.058 2.02499 13.08 1.40399 12 1.40399C10.903 1.40399 9.666 2.18899 8.034 3.22499C7.11419 3.82138 6.17502 4.38735 5.218 4.92199C2.057 6.65999 0 9.58999 0 12.908C0 18.258 5.372 22.595 12 22.595V22.596ZM10.599 4.71499C10.933 3.95599 11.102 3.13499 11.097 2.30599C11.097 2.16099 11.299 2.11899 11.327 2.27699C11.985 5.05999 10.425 6.43899 9.27 6.90099C9.146 6.94899 9.071 6.77999 9.167 6.69199C9.77918 6.14204 10.2673 5.46812 10.599 4.71499ZM12.657 4.61299C12.5624 3.79765 12.2959 3.01167 11.875 2.30699V2.29099C11.806 2.16799 11.961 2.02799 12.06 2.11899C14.022 4.22999 13.367 6.18599 12.616 7.16999C12.534 7.27299 12.386 7.16699 12.427 7.04399C12.6738 6.25886 12.7522 5.43048 12.657 4.61299ZM14.433 4.05199C14.0312 3.34152 13.4814 2.72563 12.821 2.24599V2.23199C12.709 2.14699 12.797 1.95799 12.935 2.01399C15.53 3.10099 15.709 5.19399 15.394 6.42099C15.387 6.44991 15.3696 6.47522 15.345 6.49199C15.3212 6.50876 15.2918 6.51544 15.2631 6.51057C15.2345 6.5057 15.2089 6.48967 15.192 6.46599C15.1747 6.44199 15.1668 6.41242 15.17 6.38299C15.0898 5.56306 14.8387 4.76901 14.433 4.05199ZM9.346 4.61299C8.729 5.15899 8.064 5.37299 7.283 5.61299C7.166 5.61299 7.088 5.53499 7.127 5.43199C8.879 4.52299 9.503 3.78299 10.126 2.65399C10.126 2.65399 10.281 2.53599 10.314 2.73899C10.314 3.04299 9.965 4.06799 9.346 4.61299ZM14.291 15.85C14.1489 16.453 13.8211 16.9961 13.354 17.403C13.008 17.749 12.554 17.968 12.068 18.023C11.5674 17.9756 11.0986 17.7565 10.741 17.403C10.2783 16.9944 9.95486 16.4514 9.816 15.85C9.81112 15.8143 9.81435 15.778 9.82543 15.7437C9.8365 15.7094 9.85516 15.6781 9.88 15.652C9.90465 15.6264 9.9349 15.6068 9.96839 15.5948C10.0019 15.5828 10.0377 15.5788 10.073 15.583H14.038C14.0729 15.5794 14.1082 15.5838 14.1411 15.596C14.1741 15.6081 14.2038 15.6276 14.228 15.653C14.278 15.706 14.301 15.778 14.291 15.85ZM8.833 13.674C8.4705 13.9207 8.03249 14.0314 7.59628 13.9866C7.16008 13.9418 6.75374 13.7443 6.449 13.429C6.14015 13.107 5.94909 12.6902 5.9068 12.246C5.86451 11.8019 5.97346 11.3565 6.216 10.982C6.423 10.663 6.719 10.416 7.064 10.269C7.40833 10.1221 7.78929 10.0837 8.156 10.159C8.522 10.234 8.859 10.42 9.123 10.69C9.3877 10.9654 9.56705 11.3116 9.63945 11.6867C9.71184 12.0618 9.67418 12.4498 9.531 12.804C9.38886 13.156 9.14607 13.4593 8.833 13.674ZM17.328 13.679C16.9649 13.9239 16.5269 14.0328 16.0914 13.9866C15.6558 13.9403 15.2506 13.7418 14.947 13.426C14.5942 13.059 14.398 12.5691 14.4 12.06C14.4 11.676 14.51 11.3 14.72 10.981C14.927 10.662 15.223 10.414 15.569 10.268C15.9138 10.1216 16.2952 10.0839 16.662 10.16C17.029 10.236 17.366 10.422 17.63 10.694C17.8939 10.9706 18.0722 11.3177 18.1431 11.6933C18.2141 12.069 18.1748 12.4572 18.03 12.811C17.8866 13.1632 17.6424 13.4651 17.328 13.679Z" fill="white"/>
</svg>
