<svg width="20" height="20" viewBox="0 0 20 20" fill="none" xmlns="http://www.w3.org/2000/svg">
<path d="M20 17.5V2.5C20 1.11667 19.2122 0 18.2363 0H1.76367C0.787772 0 0 1.11667 0 2.5V17.5C0 18.8833 0.787772 20 1.76367 20H18.2363C19.2122 20 20 18.8833 20 17.5ZM18.4597 2.31667C18.8477 2.86667 18.6361 3.43333 18.4245 3.71667L13.6508 9.91667L18.2363 16.6833C18.3774 16.9167 18.4715 17.2833 18.3069 17.5333C18.154 17.8 17.8013 17.7833 17.6484 17.6167L12.5103 11.4L9.99412 14.65L7.48971 11.4L2.35156 17.6167C2.19871 17.7833 1.84597 17.8 1.69312 17.5333C1.52851 17.2833 1.62258 16.9167 1.76367 16.6833L6.34921 9.91667L1.57554 3.71667C1.3639 3.43333 1.15226 2.86667 1.54027 2.31667C1.92828 1.76667 2.32804 2.03333 2.65726 2.43333L9.99412 10.8333L17.3427 2.43333C17.672 2.03333 18.0717 1.76667 18.4597 2.31667Z" fill="#BAD2FF"/>
</svg>
