<svg width="24" height="24" viewBox="0 0 24 24" fill="none" xmlns="http://www.w3.org/2000/svg">
<path d="M6 3C5.20435 3 4.44129 3.31607 3.87868 3.87868C3.31607 4.44129 3 5.20435 3 6V18C3 18.7956 3.31607 19.5587 3.87868 20.1213C4.44129 20.6839 5.20435 21 6 21H18C18.7956 21 19.5587 20.6839 20.1213 20.1213C20.6839 19.5587 21 18.7956 21 18V6C21 5.20435 20.6839 4.44129 20.1213 3.87868C19.5587 3.31607 18.7956 3 18 3H6ZM13.334 16.055C14.054 16.635 14.772 16.92 15.49 16.913C15.93 16.913 16.268 16.833 16.502 16.671C16.6113 16.6001 16.7002 16.5019 16.76 16.3862C16.8197 16.2705 16.8484 16.1412 16.843 16.011C16.8445 15.869 16.8148 15.7285 16.756 15.5993C16.6973 15.47 16.6109 15.3552 16.503 15.263C16.268 15.058 15.824 14.853 15.171 14.647C14.387 14.42 13.781 14.127 13.356 13.767C12.938 13.407 12.726 12.905 12.718 12.26C12.718 11.651 12.982 11.142 13.51 10.731C14.024 10.321 14.68 10.115 15.48 10.115C16.594 10.115 17.489 10.386 18.163 10.929L17.393 12.128C17.1158 11.9124 16.7977 11.7552 16.458 11.666C16.1527 11.5639 15.8338 11.5083 15.512 11.501C15.132 11.501 14.827 11.571 14.599 11.71C14.372 11.85 14.259 12.033 14.259 12.26C14.259 12.51 14.398 12.722 14.676 12.898C14.956 13.067 15.432 13.254 16.106 13.459C16.92 13.701 17.5 14.024 17.844 14.427C18.189 14.83 18.361 15.344 18.361 15.967C18.361 16.605 18.116 17.155 17.624 17.617C17.14 18.072 16.436 18.31 15.512 18.332C14.302 18.332 13.29 17.969 12.476 17.243L13.334 16.055ZM7.804 16.693C8.039 16.84 8.321 16.913 8.651 16.913C8.996 16.913 9.281 16.814 9.509 16.616C9.736 16.411 9.85 16.055 9.85 15.549V10.247H11.335V15.835C11.313 16.7 11.064 17.324 10.587 17.705C10.3267 17.9263 10.0233 18.0911 9.696 18.189C9.39283 18.2814 9.07792 18.3295 8.761 18.332C8.211 18.332 7.723 18.237 7.298 18.046C6.843 17.841 6.462 17.478 6.154 16.957L7.188 16.11C7.378 16.367 7.584 16.561 7.804 16.693Z" fill="white"/>
</svg>
