<svg width="14" height="14" viewBox="0 0 14 14" fill="none" xmlns="http://www.w3.org/2000/svg">
<g clip-path="url(#clip0_509_55)">
<path d="M14.0752 13.657L13.7789 13.3746C13.6376 13.1875 13.4797 13.0135 13.307 12.8549L13.3041 12.8525C13.1298 12.6943 12.9488 12.5438 12.761 12.401C12.6105 12.2976 12.4036 12.173 12.1403 12.0271C11.9267 11.9323 11.7564 11.7608 11.6632 11.5465L11.6608 11.5406L11.6328 11.5266C11.7565 11.5144 11.8697 11.4916 11.9782 11.4595L11.9647 11.463L12.2972 11.3715C12.4349 11.3283 12.5942 11.3003 12.7592 11.2939H12.7627C12.9366 11.2869 13.1005 11.2589 13.2568 11.2128L13.2422 11.2163C13.3177 11.1976 13.3953 11.1764 13.475 11.1527C13.5547 11.129 13.623 11.1078 13.6797 11.0891V10.9905C13.6233 10.9062 13.5551 10.8097 13.475 10.7012C13.4007 10.5997 13.3139 10.508 13.2166 10.4282L13.2137 10.4259C12.969 10.2097 12.7157 10.0004 12.4536 9.79821C12.2078 9.60729 11.9526 9.42895 11.6888 9.26387L11.6492 9.24054C11.497 9.1411 11.3359 9.05614 11.1679 8.98679L11.1481 8.97979C10.9738 8.90901 10.8022 8.83143 10.633 8.74704C10.572 8.71719 10.5081 8.69392 10.4422 8.67762L10.4358 8.67646C10.37 8.66337 10.3105 8.62867 10.2667 8.57787L10.2661 8.57729C10.1833 8.46743 10.1138 8.34819 10.059 8.22204L10.0543 8.21037C9.99793 8.07854 9.93688 7.95196 9.87115 7.83062C9.72999 7.55762 9.59349 7.28015 9.46165 6.99821C9.32982 6.71626 9.20324 6.43393 9.0819 6.15121C8.99751 5.96299 8.91993 5.77496 8.84915 5.58712C8.77757 5.39566 8.68751 5.21162 8.58024 5.03762L8.58782 5.05104C8.35537 4.6525 8.09596 4.2703 7.8114 3.90712L7.82774 3.92929C7.56736 3.59951 7.28288 3.28949 6.97665 3.00179L6.97199 2.99771C6.67083 2.71515 6.35292 2.45101 6.01999 2.20671L5.9914 2.18629C5.64296 1.93312 5.26185 1.68385 4.84807 1.43846C4.67218 1.33587 4.48267 1.25869 4.28515 1.20921L4.26999 1.20571L3.62074 1.04354L3.25382 1.01554C3.13171 1.00621 3.0094 1.00154 2.8869 1.00154C2.80429 0.958306 2.72828 0.903503 2.66115 0.838791C2.59627 0.777075 2.52749 0.719596 2.45524 0.666707L2.4494 0.662624C2.07048 0.443968 1.67139 0.262297 1.25765 0.120124L1.20807 0.104957C1.10517 0.0460883 0.990353 0.0111182 0.872111 0.00263627C0.753868 -0.00584569 0.635232 0.0123778 0.524987 0.0559573L0.530237 0.0542073C0.421676 0.09678 0.323835 0.162761 0.24368 0.247454C0.163524 0.332147 0.103024 0.433469 0.0664869 0.544207L0.0647369 0.550041C0.00283518 0.698691 -0.0172762 0.86143 0.00657508 1.02068C0.0304263 1.17993 0.0973336 1.32963 0.20007 1.45362L0.198904 1.45187C0.410459 1.73382 0.572626 1.95549 0.685403 2.11687C0.769792 2.23004 0.856903 2.34768 0.946737 2.46979C1.02899 2.57946 1.1019 2.70487 1.16082 2.83729L1.16549 2.84954C1.19815 2.91896 1.22674 3.00179 1.24774 3.08696L1.24949 3.09629C1.26815 3.1764 1.29168 3.26351 1.32007 3.35762C1.40446 3.57385 1.48438 3.79551 1.55982 4.02262C1.64207 4.27054 1.73307 4.48054 1.83865 4.68062L1.82757 4.65729C1.88396 4.76074 1.94054 4.86185 1.99732 4.96062C2.0541 5.0594 2.11515 5.15585 2.18049 5.24996C2.21754 5.30586 2.26532 5.35384 2.32107 5.39112L2.32282 5.39229C2.35203 5.41325 2.37609 5.44058 2.39317 5.47221C2.41025 5.50385 2.41991 5.53895 2.4214 5.57487V5.57546C2.35258 5.67769 2.30918 5.79489 2.29482 5.91729L2.29424 5.92079C2.27594 6.0582 2.24608 6.19382 2.20499 6.32621L2.20965 6.30871C2.07243 6.72882 2.00331 7.16817 2.0049 7.61012C2.0049 7.76062 2.01249 7.90879 2.02824 8.05521L2.02649 8.03712C2.06149 8.59596 2.23007 9.10929 2.50015 9.55379L2.49199 9.53921C2.6069 9.71129 2.72999 9.86121 2.8659 9.99829C2.94486 10.0871 3.05123 10.147 3.16812 10.1685C3.28501 10.1899 3.40572 10.1717 3.51107 10.1167L3.50815 10.1179C3.60924 10.0822 3.69744 10.0173 3.76153 9.93144C3.82562 9.84553 3.86271 9.7425 3.86807 9.63546V9.63429C3.89607 9.35779 3.93807 9.11046 3.99582 8.86896L3.98824 8.90804C4.00302 8.86869 4.01053 8.82699 4.0104 8.78496L4.00924 8.75871V8.75987C4.00457 8.71748 4.03043 8.67743 4.08682 8.63971V8.66771C4.14321 8.79954 4.20193 8.93118 4.26299 9.06262C4.32404 9.19407 4.38743 9.32571 4.45315 9.45754C4.62524 9.71946 4.80782 9.94812 5.00849 10.1587L5.00674 10.157C5.20636 10.3725 5.42654 10.5681 5.66415 10.7409L5.67699 10.7496C5.80065 10.8441 5.90915 10.9462 6.00715 11.0576L6.00949 11.06C6.10165 11.1685 6.2119 11.2577 6.33615 11.3248L6.34199 11.3277V11.3137H6.36999C6.34785 11.2642 6.31125 11.2225 6.26499 11.1941L6.26382 11.1935C6.22102 11.1699 6.1799 11.1434 6.14074 11.1142L6.14365 11.116C6.05926 11.0316 5.97215 10.9375 5.88232 10.8336C5.79249 10.7298 5.71024 10.631 5.63557 10.5373C5.43801 10.2643 5.2496 9.97904 5.07032 9.68154C4.89104 9.38404 4.72168 9.08168 4.56224 8.77446C4.48679 8.62396 4.41388 8.46879 4.34349 8.30896C4.2731 8.14912 4.20485 7.99396 4.13874 7.84346C4.10881 7.78229 4.08985 7.71635 4.08274 7.64862V7.64571C4.08116 7.61367 4.07131 7.58258 4.05413 7.55549C4.03695 7.52839 4.01304 7.50622 3.98474 7.49112L3.98357 7.49054C3.91678 7.60535 3.83692 7.71203 3.74557 7.80846L3.74615 7.80787C3.65246 7.9066 3.57702 8.02115 3.52332 8.14621L3.5204 8.15379C3.43309 8.36922 3.37634 8.5958 3.35182 8.82696L3.35065 8.83804C3.32265 9.08732 3.29446 9.3436 3.26607 9.60687L3.23807 9.62087L3.22407 9.63487C3.15105 9.62023 3.08223 9.58942 3.02268 9.5447C2.96312 9.49998 2.91434 9.44249 2.8799 9.37646L2.87874 9.37354C2.80796 9.23704 2.74457 9.10287 2.68857 8.97104C2.53576 8.57123 2.45231 8.14826 2.44182 7.72037V7.71512C2.41152 7.25791 2.46813 6.7991 2.60865 6.36296L2.60165 6.38862C2.62965 6.28518 2.69071 6.11096 2.78482 5.86596C2.87893 5.62096 2.89779 5.4516 2.8414 5.35787C2.81358 5.26511 2.75997 5.18217 2.68682 5.11871L2.68624 5.11812C2.61651 5.05774 2.55121 4.99243 2.49082 4.92271L2.48907 4.92037C2.42335 4.82549 2.35996 4.72437 2.2989 4.61704C2.23785 4.50971 2.18379 4.40393 2.13674 4.29971C2.02811 4.04268 1.93577 3.77908 1.86024 3.51046L1.8474 3.45854C1.7644 3.15839 1.65791 2.86523 1.5289 2.58179L1.54407 2.61912C1.48372 2.48061 1.40737 2.34964 1.31657 2.22887L1.32007 2.23354C1.22518 2.10676 1.1404 1.98679 1.06574 1.87362C0.970848 1.75151 0.876737 1.63387 0.783404 1.52071C0.686146 1.40291 0.602764 1.27432 0.534904 1.13746L0.529654 1.12579C0.499807 1.06485 0.476537 1.00091 0.460237 0.935041L0.45907 0.928624C0.449049 0.895485 0.446414 0.860552 0.451353 0.826285C0.456291 0.792018 0.468682 0.759251 0.487654 0.730291L0.48707 0.731457C0.493307 0.699914 0.50803 0.67067 0.529654 0.646874C0.553271 0.625766 0.582048 0.611276 0.61307 0.604874H0.614237C0.660261 0.575025 0.713169 0.557475 0.767908 0.553901C0.822647 0.550326 0.877389 0.560847 0.926903 0.584457L0.925153 0.583874C1.0529 0.620041 1.15615 0.656207 1.25707 0.697624L1.23607 0.690041C1.41457 0.765485 1.57926 0.838402 1.73015 0.908791C1.90399 0.991624 2.05215 1.07912 2.19215 1.17654L2.18165 1.16954C2.2571 1.2166 2.33235 1.26832 2.4074 1.32471C2.48246 1.3811 2.56238 1.43768 2.64715 1.49446H2.8449C2.9954 1.49446 3.15524 1.50165 3.3244 1.51604C3.49532 1.52946 3.6534 1.56154 3.8039 1.61171L3.7899 1.60762C4.07049 1.69104 4.3114 1.78962 4.54007 1.90804L4.51615 1.89696C4.74676 2.0144 4.96551 2.13904 5.1724 2.27087C5.51599 2.48496 5.8129 2.70429 6.09232 2.94404L6.0824 2.93587C6.37407 3.18554 6.6389 3.44162 6.8874 3.71229L6.89324 3.71929C7.1359 3.98412 7.36749 4.27171 7.57924 4.57329L7.59732 4.60071C7.79215 4.87604 7.98874 5.19454 8.16549 5.52471L8.18999 5.57429C8.24207 5.67551 8.28767 5.77994 8.32649 5.88696L8.3329 5.90621C8.37063 6.01432 8.41282 6.12515 8.45949 6.23871C8.56293 6.47398 8.67376 6.7114 8.79199 6.95096C8.91021 7.19051 9.02104 7.42346 9.12449 7.64979L9.43482 8.32704C9.5439 8.56387 9.66582 8.76804 9.80757 8.95646L9.80115 8.94771C9.91957 9.07429 10.0777 9.16296 10.255 9.19387L10.2597 9.19446C10.4743 9.24812 10.6552 9.30879 10.8302 9.38054L10.8027 9.37062C10.8862 9.40854 10.9935 9.44879 11.1037 9.48437L11.1271 9.49079C11.2507 9.52871 11.3581 9.57887 11.4567 9.64187L11.4514 9.63896C11.6422 9.74571 11.8037 9.85071 11.9577 9.96504L11.9455 9.95629C12.1053 10.0737 12.2652 10.1846 12.425 10.2888C12.5004 10.3452 12.627 10.4274 12.8047 10.5355C12.9825 10.6437 13.0766 10.7448 13.0871 10.8389C12.7297 10.8265 12.3719 10.8435 12.0172 10.8896L12.0499 10.8861C11.7537 10.9246 11.4638 11.001 11.1872 11.1136L11.2105 11.1055C11.1372 11.1365 11.0615 11.1617 10.9842 11.1807L10.9731 11.183C10.9329 11.1888 10.8958 11.2079 10.8677 11.2371C10.8396 11.2664 10.822 11.3042 10.8179 11.3446V11.3452C10.8535 11.3895 10.8821 11.4409 10.9013 11.4969L10.9025 11.5004C10.9223 11.5599 10.9462 11.6112 10.9754 11.659L10.9737 11.6555C11.0431 11.7786 11.1177 11.8848 11.2017 11.9828L11.1994 11.9799C11.2817 12.0814 11.3744 12.1695 11.4771 12.2447L11.4812 12.2476C11.576 12.3231 11.6748 12.4007 11.7775 12.4804C11.8714 12.5539 11.9776 12.6262 12.0878 12.6915L12.1018 12.6991C12.2675 12.8006 12.46 12.8975 12.6607 12.9785L12.6875 12.9879C12.9057 13.0754 13.0929 13.1769 13.2667 13.2976L13.2574 13.2912C13.3706 13.3569 13.4833 13.4298 13.5957 13.51C13.7081 13.5901 13.8162 13.6677 13.9201 13.7427C13.9627 13.7847 14 13.8314 14.0315 13.8821L14.0332 13.885C14.087 13.9471 14.1618 13.9872 14.2432 13.9976H14.245V13.9696C14.1934 13.9306 14.1558 13.876 14.1377 13.8139L14.1371 13.8115C14.1237 13.7554 14.1017 13.7016 14.0717 13.6523L14.0729 13.6546L14.0752 13.657ZM3.23924 2.45404C3.16379 2.45404 3.09321 2.45637 3.02749 2.46104C2.96337 2.46516 2.90004 2.47752 2.83907 2.49779L2.84432 2.49604V2.51004H2.87232C2.91004 2.56643 2.95749 2.62982 3.01465 2.70021C3.07182 2.7706 3.12354 2.83885 3.16982 2.90496L3.39557 3.37046L3.42357 3.35646C3.48926 3.30917 3.54023 3.24425 3.57057 3.16921L3.57174 3.16629C3.60207 3.08521 3.61957 2.99071 3.61957 2.89271L3.61899 2.86121V2.86296C3.59254 2.83723 3.57116 2.80676 3.55599 2.77312L3.5554 2.77137L3.50815 2.66521C3.4779 2.61688 3.43463 2.57807 3.38332 2.55321L3.38157 2.55262C3.32915 2.52759 3.2811 2.49431 3.23924 2.45404Z" fill="black"/>
</g>
<defs>
<clipPath id="clip0_509_55">
<rect width="14" height="14" fill="white"/>
</clipPath>
</defs>
</svg>
