<svg width="15" height="15" viewBox="0 0 15 15" fill="none" xmlns="http://www.w3.org/2000/svg">
<g clip-path="url(#clip0_601_27)">
<path fill-rule="evenodd" clip-rule="evenodd" d="M2.15867e-07 7.50003C4.83117e-05 6.20586 0.334979 4.93372 0.972226 3.80732C1.60947 2.68091 2.52735 1.73857 3.6366 1.07192C4.74586 0.405266 6.00875 0.0369931 7.30247 0.00290745C8.59619 -0.0311782 9.87671 0.270084 11.0195 0.8774C12.1624 1.48472 13.1286 2.37742 13.8243 3.46871C14.5199 4.55999 14.9214 5.81273 14.9896 7.1051C15.0578 8.39747 14.7904 9.68549 14.2134 10.8439C13.6365 12.0024 12.7696 12.9918 11.697 13.716L4.907 4.21003C4.84548 4.12381 4.75816 4.05936 4.65765 4.02596C4.55714 3.99257 4.44861 3.99195 4.34773 4.02421C4.24684 4.05647 4.1588 4.11993 4.09631 4.20544C4.03382 4.29096 4.00009 4.39411 4 4.50003V12H5V6.06003L10.83 14.222C9.6864 14.7887 8.41711 15.0542 7.14227 14.9933C5.86742 14.9324 4.6292 14.5472 3.54481 13.8741C2.46041 13.2011 1.56572 12.2624 0.945406 11.147C0.325096 10.0316 -0.000305962 8.77632 2.15867e-07 7.50003ZM10 10V4.00003H11V10H10Z" fill="white"/>
</g>
<defs>
<clipPath id="clip0_601_27">
<rect width="15" height="15" fill="white"/>
</clipPath>
</defs>
</svg>
