<svg width="11" height="12" viewBox="0 0 11 12" fill="none" xmlns="http://www.w3.org/2000/svg">
<path d="M5.5 11.9784C5.329 11.9784 5.17 11.9339 5.0215 11.8569L3.507 10.9879C3.2795 10.8669 3.3935 10.8229 3.462 10.8009C3.769 10.7019 3.826 10.6799 4.145 10.5034C4.179 10.4814 4.225 10.4924 4.259 10.5144L5.4205 11.1859C5.4655 11.2079 5.523 11.2079 5.557 11.1859L10.1005 8.64392C10.1455 8.62192 10.1685 8.57792 10.1685 8.52292V3.44992C10.1685 3.39492 10.146 3.35092 10.1005 3.32892L5.557 0.79842C5.5115 0.77642 5.4545 0.77642 5.4205 0.79842L0.877 3.32892C0.8315 3.35092 0.8085 3.40592 0.8085 3.44992V8.52292C0.8085 8.56692 0.8315 8.62192 0.877 8.64392L2.118 9.33742C2.79 9.66742 3.211 9.28242 3.211 8.89742V3.89042C3.211 3.82442 3.268 3.75842 3.348 3.75842H3.9285C3.997 3.75842 4.065 3.81342 4.065 3.89042V8.89692C4.065 9.76642 3.5755 10.2724 2.7215 10.2724C2.4595 10.2724 2.2545 10.2724 1.674 9.99742L0.4785 9.33742C0.334442 9.2582 0.214142 9.14197 0.130023 9.00072C0.0459053 8.85947 0.00101894 8.69832 0 8.53392V3.46092C0 3.13092 0.182 2.82292 0.4785 2.65792L5.022 0.11542C5.16992 0.0395636 5.33377 0 5.5 0C5.66623 0 5.83008 0.0395636 5.978 0.11542L10.522 2.65742C10.818 2.82242 11 3.13042 11 3.46042V8.53342C11 8.86342 10.818 9.17142 10.522 9.33692L5.978 11.8784C5.82713 11.9438 5.66443 11.9775 5.5 11.9774V11.9784ZM6.9005 8.48992C4.908 8.48992 4.498 7.60992 4.498 6.86142C4.498 6.79542 4.555 6.72942 4.6345 6.72942H5.2265C5.295 6.72942 5.3515 6.77342 5.3515 6.83942C5.443 7.42242 5.705 7.70842 6.912 7.70842C7.8685 7.70842 8.2785 7.49942 8.2785 7.00442C8.2785 6.71842 8.1645 6.50942 6.673 6.36642C5.4315 6.24492 4.6575 5.98142 4.6575 5.02392C4.6575 4.13242 5.4315 3.60392 6.73 3.60392C8.1875 3.60392 8.905 4.08842 8.996 5.14492C8.99498 5.18069 8.98293 5.21527 8.9615 5.24392C8.939 5.26592 8.905 5.28792 8.8705 5.28792H8.2785C8.24974 5.28722 8.22199 5.27719 8.19944 5.25933C8.17689 5.24147 8.16076 5.21675 8.1535 5.18892C8.0165 4.58392 7.6635 4.38542 6.73 4.38542C5.682 4.38542 5.557 4.73742 5.557 5.00142C5.557 5.32092 5.705 5.41992 7.117 5.59592C8.5175 5.77192 9.178 6.02492 9.178 6.97092C9.1665 7.93992 8.347 8.48992 6.9005 8.48992Z" fill="black"/>
</svg>
