<svg width="80" height="97" viewBox="0 0 80 97" fill="none" xmlns="http://www.w3.org/2000/svg">
<path d="M79.4728 73.9004L46.25 3.05924C45.8372 2.18758 45.1973 1.4442 44.3982 0.907752C43.5991 0.371306 42.6703 0.0617522 41.7103 0.0118479C40.7485 -0.0528706 39.7874 0.148443 38.9316 0.593896C38.0758 1.03935 37.358 1.71189 36.8563 2.53837L0.82285 61.1389C0.274944 62.0237 -0.0103929 63.047 0.000289308 64.0889C0.0109715 65.1307 0.31723 66.1479 0.883163 67.0212L18.5 94.4142C19.1665 95.4425 20.1462 96.2269 21.293 96.6504C22.4398 97.0739 23.6923 97.1137 24.8635 96.764L75.9882 81.5798C76.7579 81.3538 77.4705 80.9645 78.0775 80.4383C78.6846 79.912 79.172 79.261 79.5069 78.5293C79.8371 77.8014 80.0053 77.0099 79.9999 76.2101C79.9944 75.4103 79.8154 74.6212 79.4753 73.8979L79.4728 73.9004ZM72.0347 76.9387L28.6525 89.8192C27.3291 90.2146 26.0588 89.0627 26.3341 87.7216L41.8335 13.2049C42.1232 11.8108 44.0407 11.5899 44.6469 12.8801L73.3388 74.058C73.4656 74.3305 73.5321 74.6275 73.5336 74.9284C73.535 75.2293 73.4715 75.5269 73.3473 75.8007C73.2231 76.0745 73.0413 76.318 72.8143 76.5145C72.5873 76.7109 72.3206 76.8555 72.0325 76.9384L72.0347 76.9387Z" fill="black"/>
</svg>
