<svg width="14" height="14" viewBox="0 0 14 14" fill="none" xmlns="http://www.w3.org/2000/svg">
<g clip-path="url(#clip0_509_36)">
<path d="M6.94983 0C3.395 0 3.61667 1.54933 3.61667 1.54933L3.62075 3.15467H7.01225V3.6365H2.275C2.275 3.6365 0 3.37692 0 6.98192C0 10.5869 1.98508 10.4586 1.98508 10.4586H3.16925V8.78617C3.16925 8.78617 3.10567 6.79117 5.12342 6.79117H8.48692C8.48692 6.79117 10.3769 6.8215 10.3769 4.95483V1.86783C10.3769 1.86783 10.6633 0 6.94925 0H6.94983ZM5.07967 1.07917C5.41683 1.07917 5.68983 1.35333 5.68983 1.69283C5.68983 2.03175 5.41683 2.30592 5.07967 2.30592C4.74192 2.30592 4.4695 2.03175 4.4695 1.69283C4.4695 1.35333 4.74192 1.07917 5.07967 1.07917Z" fill="#252525"/>
<path d="M7.05063 14C10.6043 14 10.3826 12.4506 10.3826 12.4506L10.3786 10.8453H6.98705V10.3635H11.7255C11.7255 10.3635 14.0005 10.6231 14.0005 7.01807C14.0005 3.41307 12.0148 3.5414 12.0148 3.5414H10.8306V5.21382C10.8306 5.21382 10.8942 7.20882 8.87647 7.20882H5.51355C5.51355 7.20882 3.62355 7.17848 3.62355 9.04515V12.1321C3.62355 12.1321 3.33655 14 7.05063 14ZM8.9208 12.9208C8.58305 12.9208 8.31063 12.6466 8.31063 12.3071C8.31063 11.9682 8.58305 11.6941 8.9208 11.6941C9.25797 11.6941 9.53097 11.9682 9.53097 12.3071C9.53097 12.6466 9.25797 12.9208 8.9208 12.9208Z" fill="#252525"/>
</g>
<defs>
<clipPath id="clip0_509_36">
<rect width="14" height="14" fill="white"/>
</clipPath>
</defs>
</svg>
