<svg width="12" height="12" viewBox="0 0 12 12" fill="none" xmlns="http://www.w3.org/2000/svg">
<g clip-path="url(#clip0_509_66)">
<path d="M10.9919 8.17391C11.0193 8.11691 11.0193 8.06253 11.0489 8.00591C11.7205 5.36891 10.123 2.28491 7.37501 0.660034C8.57989 2.28491 9.05651 4.22066 8.63651 5.95916C8.60328 6.11272 8.55621 6.26296 8.49589 6.40803C8.41881 6.36477 8.34385 6.31784 8.27126 6.26741C8.27126 6.26741 5.55214 4.58591 2.63614 1.64028C2.55214 1.55628 4.20664 3.99566 6.05614 5.93141C5.18726 5.42591 2.72014 3.66003 1.17701 2.23053C1.34501 2.53691 1.59889 2.84553 1.85089 3.15453C3.13976 4.80866 4.82351 6.82803 6.84139 8.36891C5.41151 9.24003 3.42139 9.29478 1.40201 8.36891C0.898012 8.14653 0.476137 7.86491 -0.000488281 7.52928C0.841387 8.84741 2.15951 10.0523 3.73001 10.6973C5.60914 11.5114 7.51489 11.4548 8.88814 10.6973H8.91776C8.97214 10.6699 9.02914 10.6403 9.08576 10.5859C9.75776 10.248 11.0759 9.88503 11.8041 11.2868C12.0018 11.6794 12.3648 9.85728 10.9915 8.17391H10.9919Z" fill="black"/>
</g>
<defs>
<clipPath id="clip0_509_66">
<rect width="12" height="12" fill="white"/>
</clipPath>
</defs>
</svg>
