<svg width="20" height="20" viewBox="0 0 20 20" fill="none" xmlns="http://www.w3.org/2000/svg">
<path d="M19.5812 3.138C19.468 2.53242 19.2474 1.98415 18.943 1.55149C18.6299 1.10552 18.2462 0.786505 17.8281 0.624561C16.2633 0.00619463 9.99417 0.00619477 9.99417 0.00619477C7.38063 -0.0383868 4.76773 0.157694 2.17022 0.59333C1.7521 0.767239 1.36913 1.09338 1.05537 1.54274C0.74708 1.98747 0.523777 2.53588 0.407126 3.13675C0.126908 5.40003 -0.00924109 7.6981 0.00051425 9.99999C-0.0094844 12.2998 0.126331 14.5971 0.407126 16.8632C0.521277 17.4616 0.743748 18.0075 1.05287 18.4485C1.362 18.8895 1.74695 19.208 2.17022 19.3767C3.75584 19.9938 9.99417 19.9938 9.99417 19.9938C12.611 20.0384 15.2273 19.8424 17.8281 19.4067C18.2462 19.2447 18.6299 18.9257 18.943 18.4797C19.2473 18.0472 19.4676 17.4988 19.5804 16.8932C19.8679 14.6308 20.0077 12.3318 19.9978 10.0287C20.0194 7.71592 19.8798 5.40605 19.5812 3.13675V3.138ZM8.0011 14.2773V5.7239L13.2171 10.0012L8.0011 14.2773Z" fill="#BAD2FF"/>
</svg>
